<svg xmlns="http://www.w3.org/2000/svg" xmlns:xlink="http://www.w3.org/1999/xlink" width="550" zoomAndPan="magnify" viewBox="0 0 412.5 395.249997" height="527" preserveAspectRatio="xMidYMid meet" version="1.0"><defs><g/><clipPath id="0163fd0b15"><path d="M 32 0 L 411.675781 0 L 411.675781 394.5 L 32 394.5 Z M 32 0 " clip-rule="nonzero"/></clipPath><clipPath id="e039317b2f"><path d="M 0.140625 183 L 16 183 L 16 227 L 0.140625 227 Z M 0.140625 183 " clip-rule="nonzero"/></clipPath><clipPath id="4a8c5048f7"><path d="M 1 4 L 2.59375 4 L 2.59375 6 L 1 6 Z M 1 4 " clip-rule="nonzero"/></clipPath><clipPath id="1d42053f91"><rect x="0" width="3" y="0" height="8"/></clipPath></defs><path fill="#000000" d="M 155.277344 312.023438 C 162.945312 313.820312 170.839844 314.65625 178.710938 314.675781 C 206.320312 314.675781 233.636719 304.8125 257.066406 290.667969 C 282.558594 275.277344 304.902344 253.777344 321.148438 228.796875 C 335.363281 206.945312 345.144531 181.132812 344.761719 154.777344 C 344.382812 128.683594 333.933594 103.082031 316.132812 84.042969 C 296.210938 62.734375 266.792969 50.523438 237.652344 51.414062 C 211.074219 52.226562 185.953125 63.296875 164.746094 78.855469 C 145.125 93.253906 128.28125 111.25 114.609375 131.363281 C 99.46875 153.636719 87.273438 179.472656 84.3125 206.507812 C 81.945312 228.125 87.363281 250.730469 98.355469 269.402344 C 110.871094 290.667969 131.164062 306.375 155.277344 312.023438 Z M 109.539062 151.648438 C 121.488281 129.960938 137.21875 110.296875 155.863281 94 C 173.808594 78.3125 194.980469 65.503906 218.398438 60.195312 C 232.039062 57.105469 246.289062 56.777344 259.988281 59.675781 C 273.964844 62.632812 287.421875 68.546875 298.921875 77.046875 C 318.632812 91.621094 332.089844 113.957031 336.738281 137.9375 C 341.457031 162.257812 335.976562 187.308594 325.082031 209.238281 C 312.574219 234.421875 293.316406 256.457031 271.066406 273.511719 C 249.191406 290.277344 223.285156 302.800781 195.917969 307.042969 C 190.230469 307.925781 184.464844 308.371094 178.710938 308.371094 C 164.597656 308.332031 150.429688 305.492188 137.839844 298.980469 C 127.910156 293.839844 119.222656 286.691406 112.078125 278.097656 C 98.699219 262.003906 91.027344 240.914062 90.15625 220.273438 C 89.144531 196.226562 98.101562 172.40625 109.539062 151.648438 Z M 109.539062 151.648438 " fill-opacity="1" fill-rule="nonzero"/><g clip-path="url(#0163fd0b15)"><path fill="#000000" d="M 409.035156 180.988281 C 408.984375 180.863281 408.917969 180.746094 408.859375 180.628906 C 408.816406 180.5 408.773438 180.363281 408.71875 180.234375 C 404.890625 171.378906 397.5 164.421875 388.777344 160.46875 C 386.878906 144.050781 382.027344 128.03125 374.421875 113.390625 C 381.480469 102.960938 382.917969 88.84375 378.351562 77.136719 C 373.671875 65.128906 363.121094 56.421875 350.570312 53.636719 C 343.753906 52.125 336.566406 52.3125 329.917969 54.519531 C 329.710938 54.589844 329.523438 54.679688 329.347656 54.773438 C 320.394531 46.875 310.402344 40.230469 299.664062 35 C 299.742188 34.742188 299.804688 34.480469 299.839844 34.207031 C 301.1875 22.515625 294.855469 10.707031 285.085938 4.4375 C 275.171875 -1.917969 262.226562 -1.167969 252.480469 5.148438 C 246.90625 8.761719 242.664062 13.871094 240.246094 20.058594 C 240.113281 20.40625 240.082031 20.765625 240.113281 21.121094 C 229.066406 21.175781 218.019531 22.621094 207.3125 25.296875 C 202.347656 26.539062 197.453125 28.046875 192.632812 29.785156 C 192.621094 29.765625 192.609375 29.746094 192.59375 29.730469 C 185.496094 21.316406 173.699219 17.820312 163.046875 19.972656 C 152.308594 22.144531 144.050781 30.757812 141.09375 41.148438 C 139.476562 46.824219 139.476562 53.015625 141.34375 58.636719 C 138.253906 61.042969 135.222656 63.527344 132.261719 66.089844 C 122.246094 74.757812 112.992188 84.308594 104.539062 94.511719 C 93.925781 90.082031 81.679688 92.085938 72.714844 99.257812 C 63.601562 106.550781 60.386719 118.871094 63.230469 129.988281 C 64.664062 135.609375 67.6875 140.898438 71.988281 144.816406 C 67.90625 153.25 64.328125 161.933594 61.40625 170.828125 C 60.070312 174.898438 58.886719 179.027344 57.847656 183.191406 C 57.78125 183.210938 57.71875 183.214844 57.652344 183.238281 C 45.980469 188.027344 37.046875 198.304688 33.996094 210.597656 C 30.925781 222.960938 34.578125 235.851562 42.878906 245.371094 C 47.398438 250.550781 53.257812 254.449219 59.761719 256.644531 C 59.820312 256.832031 59.875 257.019531 59.933594 257.207031 C 65.089844 273.25 73.195312 288.257812 83.898438 301.265625 C 84.03125 301.425781 84.167969 301.582031 84.300781 301.742188 C 84.234375 301.792969 84.167969 301.832031 84.101562 301.894531 C 73.382812 311.921875 70.03125 328.21875 75.996094 341.621094 C 81.691406 354.421875 95.101562 362.9375 109.125 362.238281 C 117.371094 361.832031 125.242188 358.648438 131.382812 353.121094 C 131.550781 352.972656 131.683594 352.816406 131.808594 352.65625 C 142.476562 361.039062 154.671875 367.425781 168.066406 371.039062 C 176.890625 373.417969 186.027344 374.597656 195.160156 374.761719 C 200.046875 383.691406 207.683594 391.140625 217.390625 393.640625 C 232.546875 397.546875 247.546875 387.214844 253.4375 373.554688 C 255.125 369.640625 256.214844 365.542969 256.8125 361.367188 C 275.925781 353.125 293.597656 341.792969 309.539062 328.429688 C 310.25 328.828125 310.96875 329.207031 311.707031 329.554688 C 317.078125 332.097656 322.859375 333.328125 328.785156 333.546875 C 334.390625 333.75 339.902344 332.726562 344.808594 329.921875 C 349.164062 327.429688 352.734375 323.753906 355.5 319.597656 C 358.050781 315.761719 359.957031 311.375 361.015625 306.890625 C 363.222656 296.882812 359.964844 286.949219 354.574219 278.367188 C 364.953125 263.152344 373.5625 246.742188 379.765625 229.382812 C 386.078125 228.546875 392.289062 225.964844 397.269531 222.5 C 405.710938 216.636719 410.671875 207.570312 411.550781 197.359375 C 412.027344 191.828125 411.160156 186.109375 409.035156 180.984375 Z M 381.824219 205.28125 C 381.375 205.40625 380.914062 205.488281 380.457031 205.566406 C 379.878906 205.621094 379.304688 205.632812 378.730469 205.609375 C 378.984375 204.75 379.242188 203.890625 379.476562 203.027344 C 380.21875 200.289062 380.867188 197.527344 381.421875 194.746094 C 381.890625 192.382812 382.273438 190 382.601562 187.609375 C 382.707031 187.644531 382.8125 187.679688 382.917969 187.71875 C 383.457031 187.976562 383.984375 188.257812 384.488281 188.582031 C 385.070312 188.972656 384.921875 188.84375 385.429688 189.300781 C 385.84375 189.667969 386.238281 190.0625 386.605469 190.480469 C 386.644531 190.527344 386.90625 190.84375 386.988281 190.941406 C 387.0625 191.050781 387.296875 191.382812 387.328125 191.433594 C 387.632812 191.902344 387.890625 192.390625 388.15625 192.878906 C 388.308594 193.164062 388.386719 193.355469 388.582031 193.972656 C 388.742188 194.46875 388.855469 194.976562 388.953125 195.484375 C 388.96875 195.589844 388.996094 195.796875 389.003906 195.886719 C 389.023438 196.160156 389.035156 196.4375 389.035156 196.710938 C 389.035156 196.988281 389.023438 197.265625 389.003906 197.539062 C 388.996094 197.632812 388.996094 197.667969 389.003906 197.683594 C 388.992188 197.734375 388.980469 197.78125 388.964844 197.863281 C 388.210938 201.585938 385.398438 204.230469 381.828125 205.28125 Z M 356.449219 83.585938 C 356.496094 83.628906 356.675781 83.78125 356.753906 83.851562 C 356.945312 84.019531 357.136719 84.195312 357.324219 84.375 C 357.730469 84.773438 358.128906 85.199219 358.480469 85.652344 C 358.519531 85.710938 358.667969 85.925781 358.722656 86.007812 C 358.898438 86.269531 359.066406 86.539062 359.226562 86.8125 C 359.359375 87.042969 359.484375 87.273438 359.601562 87.507812 C 359.605469 87.511719 359.792969 87.917969 359.851562 88.027344 C 360.253906 89.011719 360.53125 90.058594 360.710938 91.109375 C 360.722656 91.230469 360.78125 91.660156 360.78125 91.679688 C 360.800781 91.902344 360.808594 92.125 360.816406 92.351562 C 358.902344 89.929688 356.90625 87.578125 354.832031 85.296875 C 354.054688 84.023438 353.257812 82.761719 352.441406 81.515625 C 352.960938 81.667969 353.429688 81.828125 353.714844 81.953125 C 354.339844 82.234375 355.625 82.957031 356.449219 83.585938 Z M 361.777344 65.429688 C 370.808594 71.847656 375.234375 82.789062 374.601562 93.691406 C 374.328125 98.375 373.050781 102.90625 370.898438 107.019531 C 369.464844 104.597656 367.953125 102.21875 366.359375 99.890625 C 366.222656 99.6875 366.074219 99.492188 365.9375 99.292969 C 365.972656 99.210938 366.019531 99.132812 366.050781 99.046875 C 368.222656 93.195312 367.019531 86.421875 363.210938 81.542969 C 359.601562 76.925781 353.542969 74.269531 347.703125 74.71875 C 344.21875 70.039062 340.433594 65.578125 336.351562 61.390625 C 335.808594 60.832031 335.234375 60.308594 334.683594 59.761719 C 344.015625 57.679688 353.941406 59.859375 361.777344 65.429688 Z M 267.140625 6.398438 C 276.792969 5.445312 285.578125 10.574219 290.355469 18.894531 C 292.707031 22.996094 293.855469 27.582031 293.683594 32.261719 C 293.59375 32.222656 293.503906 32.175781 293.414062 32.136719 C 290.246094 30.785156 287.03125 29.566406 283.785156 28.449219 C 283.789062 28.207031 283.777344 27.964844 283.738281 27.71875 C 282.859375 21.988281 278.058594 16.863281 272.382812 15.644531 C 266.308594 14.347656 260.023438 16.988281 256.570312 22.105469 C 254.265625 21.816406 251.953125 21.570312 249.628906 21.40625 C 248.597656 21.335938 247.5625 21.304688 246.53125 21.257812 C 249.9375 13.140625 258.460938 7.25 267.140625 6.394531 Z M 265.769531 22.296875 C 266.222656 22.121094 266.683594 21.96875 267.152344 21.851562 C 267.414062 21.785156 267.675781 21.734375 267.9375 21.6875 C 268.027344 21.671875 268.199219 21.644531 268.304688 21.636719 C 268.820312 21.59375 269.335938 21.585938 269.855469 21.617188 C 269.96875 21.621094 270.171875 21.640625 270.25 21.644531 C 270.503906 21.6875 270.757812 21.738281 271.003906 21.796875 C 271.453125 21.90625 271.894531 22.050781 272.324219 22.222656 C 272.421875 22.269531 272.617188 22.359375 272.664062 22.386719 C 272.890625 22.5 273.113281 22.621094 273.328125 22.753906 C 273.589844 22.910156 273.839844 23.078125 274.09375 23.246094 C 274.15625 23.292969 274.199219 23.316406 274.230469 23.339844 C 274.230469 23.34375 274.242188 23.359375 274.296875 23.40625 C 274.683594 23.738281 275.050781 24.082031 275.398438 24.457031 C 275.53125 24.601562 275.660156 24.75 275.789062 24.902344 C 275.808594 24.941406 276.121094 25.355469 276.132812 25.371094 C 276.3125 25.640625 276.46875 25.917969 276.625 26.199219 C 272.480469 25.015625 268.277344 24.046875 264.039062 23.269531 C 264.273438 23.117188 264.503906 22.964844 264.746094 22.824219 C 264.96875 22.691406 265.199219 22.570312 265.429688 22.457031 C 265.511719 22.417969 265.679688 22.34375 265.769531 22.300781 Z M 152.21875 33.332031 C 158.085938 26.597656 167.1875 24.21875 175.746094 26.445312 C 179.734375 27.484375 183.3125 29.449219 186.269531 32.234375 C 179.957031 34.8125 173.796875 37.769531 167.839844 41.054688 C 160.527344 45.085938 153.503906 49.625 146.761719 54.554688 C 145.183594 47.148438 147.207031 39.078125 152.21875 33.332031 Z M 68.941406 117.078125 C 70.832031 107.796875 78.144531 101.152344 87.230469 99.035156 C 91.527344 98.03125 96.226562 98.140625 100.429688 99.605469 C 92.027344 110.285156 84.421875 121.585938 77.847656 133.480469 C 76.863281 135.265625 75.90625 137.066406 74.964844 138.875 C 69.722656 133.078125 67.367188 124.816406 68.941406 117.082031 Z M 40.816406 229.542969 C 37.441406 219.414062 39.59375 208.511719 45.886719 199.980469 C 48.589844 196.320312 52.128906 193.144531 56.132812 190.890625 C 55 196.652344 54.1875 202.46875 53.792969 208.324219 C 52.875 221.917969 54.230469 235.707031 57.570312 248.9375 C 49.753906 245.019531 43.578125 237.835938 40.816406 229.542969 Z M 74.617188 276.007812 C 67.195312 261.9375 62.339844 246.359375 60.589844 230.53125 C 59.714844 222.625 59.570312 214.628906 60.214844 206.695312 C 60.691406 200.789062 61.535156 195.449219 62.847656 189.425781 C 65.515625 177.171875 69.667969 165.089844 74.726562 153.789062 C 80.324219 141.289062 87.082031 129.316406 94.746094 117.976562 C 102.585938 106.375 111.417969 95.457031 121.121094 85.363281 C 130.894531 75.199219 141.550781 65.851562 153.085938 57.730469 C 164.367188 49.792969 176.53125 42.882812 189.324219 37.761719 C 201.832031 32.757812 215.152344 29.253906 228.445312 27.988281 C 242.285156 26.671875 256.214844 27.585938 269.699219 30.832031 C 284.953125 34.5 299.636719 40.898438 312.640625 49.6875 C 326.558594 59.089844 338.476562 71.433594 347.585938 85.539062 C 348.386719 86.773438 349.152344 88.023438 349.910156 89.285156 C 350.765625 90.714844 351.597656 92.15625 352.394531 93.617188 C 352.433594 93.6875 352.476562 93.757812 352.511719 93.828125 C 364.101562 115.085938 369.765625 139.292969 368.511719 163.4375 C 368.5 163.628906 368.492188 163.824219 368.484375 164.015625 C 368.410156 165.320312 368.292969 166.625 368.179688 167.925781 C 367.753906 172.5625 367.09375 177.171875 366.21875 181.738281 C 366.074219 182.464844 365.933594 183.191406 365.78125 183.914062 C 365.664062 184.476562 365.546875 185.039062 365.425781 185.601562 C 365.113281 187 364.785156 188.394531 364.4375 189.785156 C 364.378906 190.007812 364.324219 190.226562 364.269531 190.449219 C 358.777344 211.835938 348.683594 231.894531 335.808594 249.839844 C 335.121094 250.800781 334.410156 251.75 333.703125 252.703125 C 333.058594 253.570312 332.414062 254.433594 331.757812 255.289062 C 331.472656 255.660156 331.183594 256.03125 330.894531 256.402344 C 320.226562 270.0625 307.945312 282.519531 294.542969 293.496094 C 293.140625 294.644531 291.714844 295.765625 290.285156 296.875 C 289.796875 297.253906 289.308594 297.632812 288.820312 298.003906 C 288.074219 298.574219 287.316406 299.128906 286.5625 299.6875 C 282.824219 302.449219 279.015625 305.097656 275.125 307.613281 C 273.859375 308.425781 272.585938 309.226562 271.304688 310.015625 C 270.953125 310.234375 270.605469 310.449219 270.253906 310.664062 C 269.171875 311.324219 268.082031 311.972656 266.988281 312.613281 C 266.167969 313.09375 265.347656 313.5625 264.523438 314.03125 C 263.800781 314.441406 263.082031 314.855469 262.355469 315.257812 C 258.800781 317.21875 255.195312 319.089844 251.539062 320.847656 C 249.667969 321.746094 247.777344 322.617188 245.875 323.460938 C 245.765625 323.507812 245.65625 323.554688 245.546875 323.605469 C 231.925781 329.613281 217.605469 334.09375 202.929688 336.585938 C 202.613281 336.636719 202.300781 336.683594 201.984375 336.734375 C 200.984375 336.898438 199.984375 337.050781 198.980469 337.195312 C 198.449219 337.269531 197.921875 337.34375 197.394531 337.414062 C 195.992188 337.597656 194.585938 337.765625 193.179688 337.90625 C 192.867188 337.9375 192.554688 337.96875 192.242188 337.996094 C 169.679688 340.128906 146.652344 336.832031 126.269531 326.964844 C 126.0625 326.863281 125.859375 326.765625 125.652344 326.664062 C 124.195312 325.945312 122.746094 325.195312 121.316406 324.410156 C 121.214844 324.355469 121.117188 324.296875 121.019531 324.242188 C 119.53125 323.417969 118.058594 322.566406 116.609375 321.667969 C 113.53125 319.761719 110.550781 317.703125 107.660156 315.527344 C 106.824219 314.886719 105.992188 314.234375 105.175781 313.570312 C 92.539062 303.28125 82.21875 290.410156 74.621094 276.007812 Z M 114.410156 335.636719 C 114.152344 335.683594 113.832031 335.738281 113.828125 335.75 C 113.558594 335.777344 113.285156 335.800781 113.015625 335.8125 C 111.304688 335.894531 110.746094 335.835938 109.121094 335.390625 C 108.8125 335.304688 108.507812 335.210938 108.203125 335.109375 C 108 335.042969 107.800781 334.96875 107.605469 334.890625 C 107.8125 334.988281 107.820312 334.992188 107.621094 334.902344 C 106.988281 334.621094 106.378906 334.292969 105.792969 333.929688 C 105.011719 333.441406 104.890625 333.335938 104.398438 332.894531 C 103.882812 332.425781 103.382812 331.917969 102.957031 331.367188 C 102.90625 331.277344 102.648438 330.90625 102.609375 330.851562 C 102.375 330.480469 102.152344 330.097656 101.957031 329.707031 C 101.957031 329.710938 101.738281 329.234375 101.691406 329.152344 C 101.566406 328.832031 101.453125 328.503906 101.351562 328.175781 C 101.152344 327.53125 100.996094 326.867188 100.894531 326.199219 C 100.90625 326.179688 100.828125 325.378906 100.824219 325.285156 C 100.808594 324.957031 100.804688 324.625 100.808594 324.292969 C 100.839844 322.605469 101.316406 320.738281 102.097656 319.144531 C 102.597656 319.539062 103.09375 319.929688 103.597656 320.320312 C 106.8125 325.710938 110.433594 330.832031 114.40625 335.636719 Z M 126.929688 348.660156 C 118.199219 356.511719 104.683594 358.335938 94.347656 352.640625 C 84.117188 347.003906 77.9375 335.535156 79.519531 323.863281 C 80.417969 317.230469 83.597656 311.058594 88.441406 306.472656 C 91.21875 309.480469 94.152344 312.34375 97.222656 315.054688 C 94.496094 319.53125 93.707031 325.109375 95.378906 330.164062 C 97.320312 336.027344 102.335938 340.433594 108.378906 341.695312 C 111.730469 342.398438 115.296875 342.269531 118.496094 340.984375 C 118.636719 340.929688 118.769531 340.859375 118.902344 340.789062 C 121.460938 343.539062 124.152344 346.160156 126.960938 348.640625 C 126.949219 348.648438 126.941406 348.652344 126.929688 348.660156 Z M 238.378906 383.03125 C 233.582031 386.628906 227.53125 388.820312 221.488281 388.050781 C 215.207031 387.25 209.683594 383.449219 205.609375 378.757812 C 203.585938 376.429688 201.765625 373.738281 200.230469 370.863281 C 200.167969 370.585938 200.074219 370.316406 199.941406 370.050781 C 198.335938 366.875 196.972656 363.464844 196.191406 359.960938 C 197.65625 359.875 199.121094 359.824219 200.589844 359.800781 C 202.621094 359.765625 204.652344 359.769531 206.6875 359.753906 C 206.539062 361.871094 206.761719 363.992188 207.5 366.011719 C 208.421875 368.539062 209.851562 370.851562 211.828125 372.6875 C 215.722656 376.257812 220.863281 377.523438 226 376.441406 C 230.730469 375.449219 235.132812 372.179688 237.113281 367.722656 C 238.292969 365.023438 238.929688 362.109375 238.628906 359.148438 C 238.441406 357.308594 238.019531 355.496094 237.296875 353.804688 C 241.851562 352.179688 246.367188 350.429688 250.902344 348.757812 C 250.90625 348.824219 250.914062 348.890625 250.917969 348.957031 C 250.953125 349.453125 250.972656 349.949219 250.996094 350.445312 C 251.496094 362.597656 248.519531 375.425781 238.378906 383.03125 Z M 230.410156 366.761719 C 230.089844 367.117188 229.78125 367.472656 229.4375 367.800781 C 229.300781 367.929688 229.160156 368.058594 229.015625 368.183594 C 228.984375 368.210938 228.785156 368.367188 228.667969 368.460938 C 228.539062 368.550781 228.28125 368.726562 228.292969 368.71875 C 228.132812 368.824219 227.972656 368.925781 227.808594 369.023438 C 227.441406 369.242188 227.0625 369.445312 226.679688 369.628906 C 226.574219 369.679688 226.425781 369.738281 226.359375 369.765625 C 226.234375 369.8125 226.105469 369.863281 225.980469 369.90625 C 225.527344 370.0625 225.070312 370.191406 224.605469 370.300781 C 224.421875 370.34375 224.234375 370.382812 224.046875 370.417969 C 224 370.429688 223.683594 370.46875 223.554688 370.492188 C 223.457031 370.5 223.355469 370.507812 223.328125 370.507812 C 223.09375 370.527344 222.855469 370.539062 222.617188 370.542969 C 222.191406 370.550781 221.765625 370.539062 221.339844 370.507812 C 221.203125 370.496094 220.558594 370.390625 221.191406 370.503906 C 221.003906 370.472656 220.816406 370.441406 220.632812 370.402344 C 220.167969 370.308594 219.707031 370.1875 219.257812 370.039062 C 219.132812 369.996094 219.003906 369.945312 218.875 369.902344 C 218.851562 369.886719 218.570312 369.769531 218.460938 369.714844 C 217.414062 369.191406 216.972656 368.863281 216.28125 368.230469 C 215.90625 367.882812 215.550781 367.515625 215.21875 367.128906 C 215.160156 367.0625 215.101562 366.992188 215.042969 366.925781 C 214.9375 366.777344 214.828125 366.628906 214.726562 366.476562 C 214.441406 366.050781 214.179688 365.609375 213.945312 365.15625 C 213.859375 364.980469 213.777344 364.808594 213.691406 364.632812 C 213.65625 364.53125 213.609375 364.429688 213.574219 364.335938 C 213.410156 363.886719 213.269531 363.425781 213.15625 362.957031 C 213.097656 362.726562 213.046875 362.488281 213.003906 362.253906 C 212.988281 362.191406 212.984375 362.121094 212.96875 362.054688 C 212.929688 361.597656 212.898438 361.136719 212.90625 360.675781 C 212.910156 360.40625 212.921875 360.136719 212.945312 359.867188 C 212.953125 359.789062 212.960938 359.710938 212.96875 359.632812 C 212.972656 359.609375 212.976562 359.585938 212.976562 359.558594 C 216.867188 359.304688 220.710938 358.765625 224.519531 357.800781 C 226.804688 357.222656 229.058594 356.554688 231.296875 355.839844 C 231.378906 355.992188 231.460938 356.140625 231.535156 356.300781 C 231.558594 356.347656 231.578125 356.398438 231.601562 356.449219 C 231.609375 356.472656 231.613281 356.480469 231.628906 356.511719 C 231.808594 357.042969 231.988281 357.570312 232.121094 358.117188 C 232.1875 358.390625 232.246094 358.667969 232.296875 358.941406 C 232.308594 359.011719 232.316406 359.082031 232.328125 359.148438 C 232.367188 359.710938 232.410156 360.265625 232.398438 360.832031 C 232.394531 361.109375 232.382812 361.390625 232.359375 361.671875 C 232.351562 361.761719 232.34375 361.851562 232.335938 361.941406 C 232.269531 362.226562 232.03125 363.398438 231.996094 363.519531 C 231.921875 363.789062 231.835938 364.058594 231.742188 364.320312 C 231.71875 364.386719 231.652344 364.550781 231.597656 364.691406 C 231.402344 365.117188 231.199219 365.535156 230.957031 365.9375 C 230.808594 366.1875 230.648438 366.429688 230.480469 366.667969 C 230.457031 366.703125 230.433594 366.734375 230.410156 366.765625 Z M 230.40625 366.765625 C 230.296875 366.90625 230.210938 366.988281 230.40625 366.765625 Z M 213.671875 364.585938 C 213.660156 364.558594 213.644531 364.53125 213.632812 364.503906 C 213.503906 364.230469 213.597656 364.414062 213.671875 364.585938 Z M 213.707031 364.671875 C 213.722656 364.707031 213.734375 364.742188 213.738281 364.757812 C 213.734375 364.730469 213.71875 364.699219 213.707031 364.671875 Z M 354.941406 305.214844 C 353.292969 312.199219 349.386719 319.296875 343.261719 323.457031 C 335.410156 328.789062 324.464844 328.160156 315.925781 324.582031 C 311.476562 322.71875 307.644531 319.808594 304.246094 316.445312 C 306.277344 314.179688 308.394531 311.996094 310.554688 309.859375 C 315.113281 316.703125 323.980469 320.550781 332.023438 317.46875 C 341.230469 313.945312 346.855469 303.640625 343.292969 294.113281 C 341.59375 289.566406 338.421875 285.925781 334.214844 283.710938 C 337.074219 280.246094 340.027344 276.867188 343.246094 273.738281 C 344.9375 275.652344 346.582031 277.71875 348.097656 279.914062 C 348.199219 280.09375 348.316406 280.257812 348.445312 280.414062 C 353.449219 287.824219 356.84375 296.570312 354.9375 305.214844 Z M 330.164062 288.695312 C 330.238281 288.730469 330.304688 288.769531 330.378906 288.796875 C 336.359375 291.078125 339.585938 298.398438 337.347656 304.261719 C 335 310.417969 328.167969 313.597656 322.082031 311.476562 C 319.164062 310.460938 316.503906 308.195312 315.113281 305.390625 C 318.441406 302.136719 321.730469 298.851562 324.746094 295.296875 C 326.585938 293.132812 328.375 290.914062 330.164062 288.695312 Z M 345.640625 267.035156 C 344.410156 265.753906 342.4375 265.917969 341.1875 267.035156 C 333.261719 274.082031 327.121094 282.789062 320.292969 290.839844 C 313.257812 299.132812 304.714844 305.980469 297.746094 314.328125 C 296.617188 315.679688 296.511719 317.4375 297.746094 318.789062 C 299.707031 320.933594 301.832031 322.964844 304.121094 324.777344 C 289.886719 336.558594 274.179688 346.597656 257.367188 354.269531 C 257.378906 353.515625 257.382812 352.765625 257.367188 352.015625 C 257.363281 351.867188 257.359375 351.71875 257.355469 351.570312 C 257.328125 350.453125 257.269531 349.332031 257.183594 348.21875 C 257.175781 348.148438 257.171875 348.074219 257.164062 348.003906 C 257.066406 346.808594 256.941406 345.613281 256.785156 344.429688 C 256.78125 344.410156 256.773438 344.390625 256.773438 344.371094 C 256.769531 344.117188 256.742188 343.855469 256.671875 343.589844 C 256.492188 342.945312 256.0625 342.363281 255.515625 341.9375 C 255.503906 341.925781 255.488281 341.917969 255.476562 341.90625 C 255.40625 341.851562 255.335938 341.800781 255.261719 341.753906 C 255.230469 341.734375 255.199219 341.707031 255.167969 341.6875 C 254.667969 341.351562 254.082031 341.175781 253.425781 341.253906 C 253.214844 341.273438 253.003906 341.3125 252.796875 341.386719 C 249.132812 342.683594 245.5 344.070312 241.855469 345.4375 C 235.785156 347.714844 229.695312 349.9375 223.417969 351.574219 C 219.046875 352.710938 214.710938 353.226562 210.246094 353.386719 C 209.605469 353.40625 208.964844 353.425781 208.324219 353.433594 C 207.003906 353.449219 205.6875 353.453125 204.371094 353.460938 C 200.417969 353.476562 196.46875 353.507812 192.535156 353.960938 C 191.011719 354.136719 189.15625 355.273438 189.386719 357.113281 C 189.386719 357.117188 189.386719 357.121094 189.386719 357.121094 C 189.464844 357.773438 189.570312 358.429688 189.679688 359.085938 C 189.695312 359.175781 189.710938 359.269531 189.726562 359.359375 C 190.257812 362.359375 191.09375 365.394531 192.21875 368.367188 C 178.574219 367.75 165.046875 364.652344 152.746094 358.601562 C 140.777344 352.714844 130.230469 344.371094 121.445312 334.351562 C 120.058594 332.769531 118.734375 331.132812 117.441406 329.472656 C 120.183594 331.015625 122.988281 332.453125 125.851562 333.761719 C 142.257812 341.261719 160.214844 344.878906 178.226562 344.941406 C 179.652344 344.949219 181.078125 344.921875 182.503906 344.886719 C 182.570312 344.882812 182.632812 344.882812 182.699219 344.878906 C 191.703125 344.632812 200.679688 343.546875 209.519531 341.757812 C 209.542969 341.753906 209.5625 341.75 209.585938 341.742188 C 211.296875 341.394531 213.003906 341.023438 214.703125 340.625 C 214.84375 340.59375 214.988281 340.554688 215.128906 340.523438 C 216.550781 340.183594 217.96875 339.828125 219.378906 339.453125 C 219.714844 339.367188 220.054688 339.28125 220.390625 339.191406 C 221.695312 338.835938 222.996094 338.46875 224.292969 338.085938 C 225.003906 337.875 225.714844 337.664062 226.421875 337.445312 C 227.003906 337.269531 227.582031 337.082031 228.160156 336.898438 C 233.011719 335.359375 237.800781 333.628906 242.519531 331.714844 C 242.539062 331.703125 242.5625 331.695312 242.585938 331.683594 C 244.523438 330.898438 246.449219 330.078125 248.363281 329.230469 C 248.558594 329.144531 248.753906 329.058594 248.949219 328.972656 C 250.789062 328.152344 252.613281 327.308594 254.425781 326.4375 C 254.578125 326.367188 254.730469 326.296875 254.878906 326.222656 C 256.78125 325.304688 258.671875 324.355469 260.542969 323.382812 C 260.96875 323.160156 261.390625 322.925781 261.816406 322.703125 C 263.171875 321.984375 264.523438 321.253906 265.863281 320.511719 C 266.550781 320.128906 267.234375 319.738281 267.914062 319.347656 C 268.511719 319.007812 269.117188 318.675781 269.710938 318.328125 C 270.242188 318.019531 270.765625 317.695312 271.296875 317.378906 C 271.941406 316.996094 272.585938 316.613281 273.226562 316.222656 C 274.542969 315.425781 275.847656 314.609375 277.144531 313.785156 C 277.457031 313.582031 277.78125 313.394531 278.09375 313.191406 C 278.1875 313.132812 278.277344 313.070312 278.371094 313.007812 C 296.84375 301.082031 313.625 286.402344 328.023438 269.769531 C 328.246094 269.511719 328.460938 269.25 328.683594 268.988281 C 329.640625 267.875 330.59375 266.753906 331.53125 265.621094 C 332.480469 264.472656 333.414062 263.308594 334.34375 262.144531 C 334.4375 262.027344 334.53125 261.914062 334.621094 261.800781 C 334.679688 261.726562 334.734375 261.652344 334.792969 261.582031 C 340.9375 253.824219 346.585938 245.675781 351.574219 237.144531 C 354.359375 232.386719 356.921875 227.488281 359.285156 222.496094 C 359.589844 221.859375 359.898438 221.226562 360.191406 220.589844 C 360.601562 219.695312 360.992188 218.796875 361.390625 217.898438 C 361.832031 216.894531 362.265625 215.890625 362.691406 214.882812 C 363.011719 214.109375 363.328125 213.332031 363.640625 212.558594 C 364.121094 211.363281 364.582031 210.160156 365.035156 208.953125 C 365.28125 208.304688 365.527344 207.652344 365.765625 206.996094 C 366.316406 205.476562 366.839844 203.949219 367.34375 202.410156 C 367.464844 202.042969 367.59375 201.679688 367.710938 201.3125 C 368.335938 199.367188 368.921875 197.414062 369.46875 195.445312 C 369.574219 195.074219 369.664062 194.699219 369.765625 194.328125 C 370.1875 192.769531 370.589844 191.203125 370.960938 189.632812 C 371.019531 189.398438 371.085938 189.164062 371.140625 188.929688 C 371.246094 188.472656 371.332031 188.007812 371.433594 187.546875 C 371.597656 186.816406 371.777344 186.089844 371.929688 185.355469 C 372.027344 184.875 372.105469 184.386719 372.203125 183.90625 C 372.351562 183.140625 372.496094 182.375 372.636719 181.605469 C 372.859375 180.378906 373.0625 179.152344 373.253906 177.925781 C 373.367188 177.195312 373.480469 176.464844 373.582031 175.738281 C 373.753906 174.527344 373.902344 173.3125 374.042969 172.097656 C 374.136719 171.269531 374.238281 170.441406 374.320312 169.613281 C 374.398438 168.832031 374.457031 168.050781 374.519531 167.265625 C 374.601562 166.246094 374.710938 165.226562 374.777344 164.207031 C 375.121094 158.421875 375.070312 152.613281 374.648438 146.828125 C 374.648438 146.820312 374.648438 146.8125 374.648438 146.800781 C 373.898438 136.5 371.953125 126.28125 368.890625 116.417969 C 373.566406 125.417969 377.1875 134.96875 379.636719 144.835938 C 380.722656 149.21875 381.582031 153.65625 382.195312 158.128906 C 381.789062 158.023438 381.382812 157.90625 380.96875 157.8125 C 379.140625 157.394531 376.792969 158.710938 376.980469 160.851562 C 377.695312 168.945312 377.558594 177.085938 376.585938 185.113281 C 376.421875 186.453125 376.238281 187.789062 376.03125 189.117188 C 375.613281 191.78125 375.101562 194.429688 374.5 197.058594 C 373.296875 202.3125 371.726562 207.480469 369.792969 212.523438 C 368.34375 216.304688 366.691406 220.015625 364.835938 223.632812 C 364.714844 223.871094 364.625 224.109375 364.558594 224.347656 C 364.425781 224.824219 364.40625 225.300781 364.480469 225.75 C 364.675781 226.871094 365.480469 227.828125 366.71875 228.265625 C 366.71875 228.265625 366.71875 228.265625 366.722656 228.265625 C 367.246094 228.449219 367.78125 228.605469 368.316406 228.75 C 368.578125 228.820312 368.84375 228.886719 369.105469 228.949219 C 369.292969 228.992188 369.480469 229.035156 369.667969 229.070312 C 370.769531 229.308594 371.878906 229.476562 373.007812 229.574219 C 367.347656 244.847656 359.714844 259.3125 350.699219 272.863281 C 349.085938 270.804688 347.386719 268.847656 345.640625 267.035156 Z M 402.714844 206.820312 C 399.03125 214.550781 391.847656 219.640625 383.753906 222.03125 C 381.28125 222.761719 378.730469 223.230469 376.175781 223.3125 C 376.042969 223.316406 375.914062 223.316406 375.785156 223.316406 C 375.390625 223.320312 374.996094 223.3125 374.605469 223.300781 C 374.320312 223.289062 374.035156 223.277344 373.75 223.253906 C 373.34375 223.226562 372.941406 223.1875 372.539062 223.136719 C 372.394531 223.121094 372.253906 223.101562 372.109375 223.078125 C 373.851562 219.375 375.398438 215.585938 376.757812 211.734375 C 378.992188 212.121094 381.332031 211.960938 383.503906 211.363281 C 389.085938 209.714844 394.128906 205.144531 395.097656 199.207031 C 396.136719 192.8125 392.953125 186.679688 387.667969 183.136719 C 386.328125 182.265625 384.847656 181.652344 383.308594 181.253906 C 383.753906 175.910156 383.859375 170.53125 383.582031 165.164062 C 392.1875 168.285156 399.34375 174.59375 403.128906 183.09375 C 406.125 190.644531 406.246094 199.410156 402.714844 206.820312 Z M 402.714844 206.820312 " fill-opacity="1" fill-rule="nonzero"/></g><path fill="#000000" d="M 34.601562 182.214844 C 37.34375 179.230469 32.898438 174.761719 30.148438 177.757812 C 17.15625 191.90625 11.617188 211.714844 14.472656 230.621094 C 15.277344 235.941406 16.859375 241.042969 19.027344 245.960938 C 19.714844 247.519531 21.988281 247.882812 23.335938 247.089844 C 24.941406 246.152344 25.15625 244.339844 24.46875 242.777344 C 17.691406 227.414062 18.730469 208.855469 26.398438 194.023438 C 28.613281 189.738281 31.339844 185.769531 34.601562 182.214844 Z M 34.601562 182.214844 " fill-opacity="1" fill-rule="nonzero"/><g clip-path="url(#e039317b2f)"><path fill="#000000" d="M 15.363281 188.378906 C 17.625 185 12.171875 181.839844 9.921875 185.199219 C 2.414062 196.398438 -1.089844 210.210938 0.230469 223.640625 C 0.398438 225.335938 1.558594 226.792969 3.382812 226.792969 C 4.957031 226.792969 6.699219 225.34375 6.53125 223.640625 C 5.308594 211.191406 8.398438 198.769531 15.363281 188.378906 Z M 15.363281 188.378906 " fill-opacity="1" fill-rule="nonzero"/></g><path fill="#000000" d="M 372.367188 313.375 C 373.457031 307.535156 373.363281 301.597656 371.996094 295.808594 C 371.066406 291.859375 364.988281 293.53125 365.921875 297.484375 C 367.941406 306.050781 366.582031 315.277344 362.273438 322.945312 C 358.015625 330.527344 350.917969 336.1875 342.652344 338.84375 C 337.859375 340.382812 332.910156 340.886719 327.902344 340.382812 C 326.207031 340.210938 324.753906 341.953125 324.753906 343.535156 C 324.753906 345.382812 326.203125 346.515625 327.902344 346.6875 C 337.925781 347.699219 348.402344 344.761719 356.484375 338.746094 C 364.746094 332.597656 370.476562 323.53125 372.367188 313.375 Z M 372.367188 313.375 " fill-opacity="1" fill-rule="nonzero"/><path fill="#000000" d="M 373.074219 329.351562 C 371.378906 328.964844 369.707031 329.863281 369.199219 331.554688 C 369.054688 332.03125 368.902344 332.507812 368.730469 332.980469 C 368.644531 333.214844 368.550781 333.449219 368.460938 333.683594 C 368.445312 333.722656 368.441406 333.738281 368.433594 333.765625 C 368.417969 333.792969 368.410156 333.808594 368.390625 333.851562 C 367.996094 334.683594 367.59375 335.503906 367.128906 336.296875 C 366.640625 337.128906 366.101562 337.917969 365.535156 338.699219 C 365.476562 338.769531 365.402344 338.871094 365.339844 338.949219 C 365.207031 339.109375 365.074219 339.269531 364.9375 339.429688 C 364.613281 339.808594 364.277344 340.179688 363.929688 340.542969 C 363.265625 341.234375 362.5625 341.894531 361.828125 342.511719 C 361.6875 342.628906 361.546875 342.742188 361.402344 342.855469 C 361.335938 342.90625 361.195312 343.019531 361.085938 343.097656 C 360.714844 343.367188 360.335938 343.628906 359.949219 343.878906 C 359.144531 344.402344 358.3125 344.878906 357.457031 345.308594 C 357.230469 345.421875 357.007812 345.527344 356.777344 345.632812 C 356.710938 345.664062 356.542969 345.738281 356.425781 345.789062 C 356.023438 345.949219 355.617188 346.105469 355.207031 346.246094 C 353.65625 346.785156 352.460938 348.429688 353.007812 350.125 C 353.503906 351.664062 355.21875 352.90625 356.882812 352.328125 C 365.644531 349.28125 372.59375 342.136719 375.277344 333.226562 C 375.75 331.648438 374.707031 329.722656 373.074219 329.351562 Z M 373.074219 329.351562 " fill-opacity="1" fill-rule="nonzero"/><path fill="#000000" d="M 352.621094 39.515625 C 367.644531 40.761719 380.9375 52.382812 384.589844 66.929688 C 385.578125 70.859375 391.660156 69.195312 390.667969 65.253906 C 386.292969 47.84375 370.40625 34.6875 352.621094 33.210938 C 350.925781 33.070312 349.472656 34.761719 349.472656 36.363281 C 349.472656 38.1875 350.921875 39.375 352.621094 39.515625 Z M 352.621094 39.515625 " fill-opacity="1" fill-rule="nonzero"/><path fill="#000000" d="M 374.21875 32.214844 C 374.609375 32.320312 375 32.4375 375.386719 32.566406 C 375.578125 32.628906 375.769531 32.695312 375.960938 32.769531 C 376.058594 32.804688 376.816406 33.15625 376.335938 32.910156 C 375.867188 32.667969 376.511719 32.992188 376.609375 33.039062 C 376.792969 33.121094 376.976562 33.210938 377.15625 33.304688 C 377.519531 33.484375 377.875 33.679688 378.226562 33.886719 C 378.605469 34.109375 378.976562 34.34375 379.339844 34.589844 C 379.507812 34.703125 379.675781 34.820312 379.839844 34.941406 C 379.894531 34.980469 379.949219 35.019531 380.003906 35.058594 C 380.273438 35.261719 380.21875 35.21875 379.851562 34.9375 C 379.976562 34.898438 380.671875 35.617188 380.785156 35.71875 C 381.089844 35.988281 381.386719 36.265625 381.671875 36.554688 C 382.25 37.132812 382.742188 37.773438 383.289062 38.375 C 383.242188 38.324219 383.210938 38.289062 383.175781 38.25 C 383.222656 38.300781 383.261719 38.351562 383.289062 38.386719 C 383.40625 38.550781 383.523438 38.71875 383.636719 38.886719 C 383.867188 39.222656 384.082031 39.566406 384.292969 39.914062 C 384.5 40.265625 384.695312 40.621094 384.878906 40.980469 C 384.933594 41.085938 385.289062 41.957031 385.382812 42.0625 C 385.398438 42.097656 385.414062 42.136719 385.425781 42.175781 C 385.496094 42.363281 385.566406 42.554688 385.632812 42.746094 C 385.773438 43.164062 385.898438 43.585938 386.011719 44.011719 C 386.441406 45.601562 388.277344 46.734375 389.890625 46.214844 C 391.519531 45.683594 392.546875 44.042969 392.089844 42.335938 C 390 34.574219 383.648438 28.21875 375.894531 26.136719 C 374.304688 25.710938 372.398438 26.671875 372.019531 28.339844 C 371.640625 29.996094 372.515625 31.761719 374.21875 32.21875 Z M 374.21875 32.214844 " fill-opacity="1" fill-rule="nonzero"/><path fill="#000000" d="M 383.175781 38.25 C 383.039062 38.089844 382.894531 37.9375 383.175781 38.25 Z M 383.175781 38.25 " fill-opacity="1" fill-rule="nonzero"/><path fill="#000000" d="M 114.15625 175.605469 C 115.945312 176.097656 117.402344 174.992188 118.03125 173.402344 C 124.4375 157.203125 133.359375 141.898438 144.214844 128.28125 C 155.160156 114.554688 168.042969 102.332031 182.441406 92.28125 C 190.644531 86.554688 199.320312 81.523438 208.359375 77.242188 C 209.894531 76.511719 210.292969 74.304688 209.488281 72.929688 C 208.566406 71.351562 206.722656 71.066406 205.179688 71.796875 C 188.753906 79.582031 173.550781 89.886719 160.101562 102.117188 C 146.667969 114.339844 134.972656 128.554688 125.582031 144.109375 C 120.265625 152.914062 115.738281 162.164062 111.953125 171.726562 C 111.328125 173.308594 112.640625 175.1875 114.15625 175.605469 Z M 114.15625 175.605469 " fill-opacity="1" fill-rule="nonzero"/><path fill="#000000" d="M 112.105469 185.714844 C 112.183594 185.710938 112.867188 185.613281 112.945312 185.605469 C 112.957031 185.601562 112.972656 185.601562 112.984375 185.59375 C 112.996094 185.59375 113.003906 185.589844 113.015625 185.582031 C 113.277344 185.480469 113.550781 185.386719 113.800781 185.25 C 113.808594 185.246094 113.820312 185.238281 113.828125 185.230469 C 113.835938 185.230469 113.839844 185.226562 113.84375 185.21875 C 113.84375 185.21875 113.847656 185.21875 113.847656 185.21875 C 114.058594 185.054688 114.273438 184.890625 114.484375 184.726562 L 114.492188 184.71875 C 114.503906 184.707031 114.515625 184.699219 114.523438 184.6875 C 114.714844 184.480469 114.878906 184.253906 115.039062 184.023438 C 115.046875 184.011719 115.054688 184 115.058594 183.988281 C 115.183594 183.734375 115.3125 183.476562 115.390625 183.203125 C 115.472656 182.921875 115.484375 182.621094 115.511719 182.332031 C 115.511719 182.320312 115.511719 182.308594 115.511719 182.292969 C 115.507812 182.253906 115.40625 181.488281 115.398438 181.453125 C 115.398438 181.449219 115.394531 181.445312 115.394531 181.441406 C 115.394531 181.433594 115.390625 181.429688 115.390625 181.421875 C 115.300781 181.160156 115.1875 180.902344 115.066406 180.65625 C 115.0625 180.648438 115.058594 180.640625 115.054688 180.632812 C 114.933594 180.414062 114.78125 180.226562 114.609375 180.058594 C 114.585938 180.03125 114.566406 180 114.542969 179.972656 C 114.539062 179.964844 114.53125 179.960938 114.527344 179.957031 C 114.527344 179.957031 114.523438 179.953125 114.523438 179.953125 C 114.308594 179.789062 114.097656 179.625 113.882812 179.460938 C 113.882812 179.457031 113.878906 179.457031 113.878906 179.457031 C 113.867188 179.449219 113.859375 179.445312 113.851562 179.4375 C 113.8125 179.421875 113.132812 179.132812 113.09375 179.121094 C 113.089844 179.121094 113.089844 179.121094 113.085938 179.117188 C 113.078125 179.113281 113.074219 179.113281 113.066406 179.113281 C 112.785156 179.046875 112.492188 179.015625 112.203125 178.996094 C 112.191406 178.996094 112.179688 178.996094 112.167969 178.996094 C 111.875 179.019531 111.585938 179.054688 111.300781 179.113281 C 111.289062 179.113281 111.273438 179.117188 111.261719 179.125 C 110.601562 179.355469 110.269531 179.519531 109.753906 180.007812 C 109.746094 180.015625 109.738281 180.023438 109.730469 180.03125 C 109.730469 180.035156 109.726562 180.035156 109.726562 180.039062 C 109.667969 180.109375 109.285156 180.605469 109.230469 180.679688 C 109.226562 180.683594 109.222656 180.691406 109.21875 180.695312 C 109.210938 180.707031 109.207031 180.714844 109.203125 180.726562 L 109.195312 180.734375 C 109.171875 180.792969 108.898438 181.433594 108.878906 181.492188 C 108.875 181.496094 108.875 181.503906 108.875 181.507812 C 108.871094 181.515625 108.871094 181.523438 108.871094 181.527344 C 108.871094 181.53125 108.871094 181.53125 108.871094 181.535156 C 108.863281 181.574219 108.757812 182.339844 108.757812 182.375 C 108.757812 182.386719 108.753906 182.398438 108.757812 182.410156 C 108.820312 183.175781 108.855469 183.382812 109.203125 184.0625 C 109.210938 184.074219 109.214844 184.082031 109.222656 184.089844 C 109.386719 184.304688 109.550781 184.515625 109.714844 184.730469 C 109.714844 184.730469 109.71875 184.734375 109.71875 184.734375 C 109.722656 184.738281 109.722656 184.738281 109.726562 184.742188 C 109.730469 184.746094 109.738281 184.75 109.742188 184.753906 C 110.269531 185.226562 110.507812 185.371094 111.183594 185.597656 C 111.195312 185.597656 111.203125 185.601562 111.214844 185.601562 C 111.4375 185.640625 111.792969 185.71875 112.082031 185.71875 C 112.089844 185.71875 112.097656 185.71875 112.101562 185.71875 L 112.109375 185.71875 Z M 110.703125 184.902344 L 110.6875 184.894531 C 110.660156 184.875 110.636719 184.855469 110.613281 184.835938 C 110.640625 184.859375 110.671875 184.882812 110.703125 184.902344 Z M 110.242188 184.550781 C 110.1875 184.507812 110.132812 184.46875 110.082031 184.425781 C 110.074219 184.414062 110.066406 184.40625 110.058594 184.394531 C 110.113281 184.449219 110.179688 184.5 110.242188 184.550781 Z M 110.242188 184.550781 " fill-opacity="1" fill-rule="nonzero"/><g transform="matrix(1, 0, 0, 1, 371, 113)"><g clip-path="url(#1d42053f91)"><g clip-path="url(#4a8c5048f7)"><g fill="#000000" fill-opacity="1"><g transform="translate(1.08397, 5.717376)"><g><path d="M 0.71875 -0.765625 C 0.832031 -0.765625 0.925781 -0.722656 1 -0.640625 C 1.082031 -0.554688 1.125 -0.457031 1.125 -0.34375 C 1.125 -0.226562 1.082031 -0.128906 1 -0.046875 C 0.925781 0.0351562 0.832031 0.078125 0.71875 0.078125 C 0.59375 0.078125 0.488281 0.0351562 0.40625 -0.046875 C 0.332031 -0.128906 0.296875 -0.226562 0.296875 -0.34375 C 0.296875 -0.457031 0.332031 -0.554688 0.40625 -0.640625 C 0.488281 -0.722656 0.59375 -0.765625 0.71875 -0.765625 Z M 0.71875 -0.765625 "/></g></g></g></g></g></g></svg>