<svg xmlns="http://www.w3.org/2000/svg"
     viewBox="0 0 24 24"
     fill="currentColor"
     aria-hidden="true">

  <!-- Rounded speaker -->
  <path d="
    M4 9.5
    Q4 9 4.5 9
    H7.3
    L11.4 5.6
    Q12 5.1 12.5 5.4
    Q13 5.7 13 6.3
    V17.7
    Q13 18.3 12.5 18.6
    Q12 18.9 11.4 18.4
    L7.3 15
    H4.5
    Q4 15 4 14.5
    Z
  "/>

  <!-- Inner rounded wave -->
  <path d="
    M15.7 9.7
    Q17.5 12 15.7 14.3
    Q15.3 14.8 14.8 14.4
    Q14.3 14 14.8 13.4
    Q15.9 12 14.8 10.6
    Q14.3 10 14.8 9.6
    Q15.3 9.2 15.7 9.7
    Z
  "/>

  <!-- Outer rounded wave -->
  <path d="
    M18.7 7.5
    Q22 12 18.7 16.5
    Q18.3 17 17.8 16.6
    Q17.3 16.2 17.7 15.6
    Q20.3 12 17.7 8.4
    Q17.3 7.8 17.8 7.4
    Q18.3 7 18.7 7.5
    Z
  "/>

</svg>
