<svg xmlns="http://www.w3.org/2000/svg" viewBox="0 0 372 372" fill="none" aria-hidden="true">
  <path fill="currentColor" fill-rule="evenodd" d="M 167.00 326.50 L 156.00 324.50 L 45.50 215.00 L 42.50 210.00 L 43.50 199.00 L 49.00 192.50 L 128.00 151.50 L 147.00 132.50 L 151.00 130.50 L 163.00 129.50 L 169.00 131.50 L 189.00 149.50 L 291.00 46.50 L 298.00 43.50 L 307.00 43.50 L 312.00 45.50 L 321.50 54.00 L 326.50 63.00 L 327.50 70.00 L 323.50 81.00 L 221.50 184.00 L 238.50 202.00 L 240.50 207.00 L 239.50 219.00 L 222.50 236.00 L 179.50 316.00 L 172.00 324.50 L 167.00 326.50 Z M 210.50 172.00 L 309.50 73.00 L 310.50 68.00 L 304.00 60.50 L 300.00 60.50 L 198.50 161.00 L 209.00 172.50 L 210.50 172.00 Z M 215.50 221.00 L 224.50 212.00 L 224.50 209.00 L 160.00 145.50 L 158.00 145.50 L 148.50 155.00 L 148.50 157.00 L 212.00 219.50 L 215.50 221.00 Z M 164.50 308.00 L 204.50 235.00 L 137.00 167.50 L 134.00 165.50 L 59.50 206.00 L 88.00 234.50 L 116.00 215.50 L 120.00 213.50 L 127.00 214.50 L 129.50 218.00 L 129.50 224.00 L 100.50 247.00 L 124.00 270.50 L 145.00 248.50 L 153.00 248.50 L 157.50 254.00 L 156.50 259.00 L 136.50 281.00 L 136.50 283.00 L 162.00 308.50 L 164.50 308.00 Z M 252.00 295.50 L 245.00 295.50 L 238.50 289.00 L 239.50 280.00 L 248.00 274.50 L 253.00 275.50 L 258.50 281.00 L 259.50 285.00 L 257.50 291.00 L 252.00 295.50 Z M 218.00 326.50 L 211.00 325.50 L 205.50 318.00 L 206.50 312.00 L 212.00 306.50 L 220.00 306.50 L 225.50 312.00 L 225.50 321.00 L 218.00 326.50 Z"/>
</svg>
