<svg xmlns="http://www.w3.org/2000/svg" viewBox="0 0 512 512" fill="none" aria-hidden="true">
  <path fill="currentColor" d="M 152 104 L 144 106 L 143 108 L 141 108 L 133 114 L 130 120 L 128 130 L 128 382 L 132 396 L 140 404 L 147 406 L 149 408 L 164 408 L 165 406 L 168 406 L 178 401 L 180 398 L 184 397 L 207 381 L 224 372 L 229 367 L 240 362 L 242 359 L 249 356 L 254 351 L 267 345 L 269 342 L 286 333 L 293 327 L 304 322 L 306 319 L 316 314 L 322 309 L 326 308 L 331 303 L 335 302 L 344 295 L 354 290 L 356 287 L 367 282 L 378 271 L 381 265 L 382 250 L 377 239 L 367 230 L 363 229 L 343 215 L 325 205 L 318 199 L 309 195 L 308 193 L 301 190 L 287 180 L 283 179 L 281 176 L 274 173 L 268 168 L 259 164 L 257 161 L 246 156 L 244 153 L 237 150 L 232 145 L 221 140 L 217 136 L 210 133 L 201 126 L 197 125 L 195 122 L 183 116 L 177 111 L 164 105 Z"/>
</svg>
