<svg xmlns="http://www.w3.org/2000/svg"
     viewBox="0 0 24 24"
     fill="currentColor"
     aria-hidden="true">

  <!-- Magnifying glass -->
  <path d="
    M10.5 4
    C6.9 4 4 6.9 4 10.5
    C4 14.1 6.9 17 10.5 17
    C12.0 17 13.4 16.5 14.5 15.6
    L18.6 19.7
    Q19 20.1 19.5 19.7
    Q20 19.3 19.6 18.9
    L15.5 14.8
    C16.5 13.7 17 12.2 17 10.5
    C17 6.9 14.1 4 10.5 4
    Z

    M10.5 6
    C13.0 6 15 8.0 15 10.5
    C15 13.0 13.0 15 10.5 15
    C8.0 15 6 13.0 6 10.5
    C6 8.0 8.0 6 10.5 6
    Z
  "/>

  <!-- Minus sign -->
  <path d="
    M8.3 10
    Q8 10 8 10.3
    V10.7
    Q8 11 8.3 11
    H12.7
    Q13 11 13 10.7
    V10.3
    Q13 10 12.7 10
    H8.3
    Z
  "/>

</svg>
