<svg xmlns="http://www.w3.org/2000/svg" xmlns:xlink="http://www.w3.org/1999/xlink" width="175" zoomAndPan="magnify" viewBox="0 0 131.25 143.999998" height="192" preserveAspectRatio="xMidYMid meet" version="1.2"><defs><clipPath id="2a134d5da5"><path d="M 17.898438 24.675781 L 111.859375 24.675781 L 111.859375 118.640625 L 17.898438 118.640625 Z M 17.898438 24.675781 "/></clipPath><clipPath id="1436cb12ac"><path d="M 64.878906 24.675781 C 38.933594 24.675781 17.898438 45.710938 17.898438 71.660156 C 17.898438 97.605469 38.933594 118.640625 64.878906 118.640625 C 90.828125 118.640625 111.859375 97.605469 111.859375 71.660156 C 111.859375 45.710938 90.828125 24.675781 64.878906 24.675781 Z M 64.878906 24.675781 "/></clipPath></defs><g id="0d388df51e"><g clip-rule="nonzero" clip-path="url(#2a134d5da5)"><g clip-rule="nonzero" clip-path="url(#1436cb12ac)"><path style="fill:none;stroke-width:8;stroke-linecap:butt;stroke-linejoin:miter;stroke:#000000;stroke-opacity:1;stroke-miterlimit:4;" d="M 63.093277 -0.00202662 C 28.250074 -0.00202662 0.0009548 28.247092 0.0009548 63.095541 C 0.0009548 97.938745 28.250074 126.187864 63.093277 126.187864 C 97.941726 126.187864 126.185599 97.938745 126.185599 63.095541 C 126.185599 28.247092 97.941726 -0.00202662 63.093277 -0.00202662 Z M 63.093277 -0.00202662 " transform="matrix(0.744631,0,0,0.744631,17.897727,24.67729)"/></g></g><g style="fill:#000000;fill-opacity:1;"><g transform="translate(36.669365, 101.083803)"><path style="stroke:none" d="M 28.71875 1.078125 C 23 1.078125 18.363281 -0.113281 14.8125 -2.5 C 11.257812 -4.882812 8.660156 -8.222656 7.015625 -12.515625 C 5.378906 -16.816406 4.5625 -21.769531 4.5625 -27.375 C 4.5625 -31.675781 5.035156 -35.820312 5.984375 -39.8125 C 6.941406 -43.8125 8.453125 -47.390625 10.515625 -50.546875 C 12.578125 -53.710938 15.242188 -56.21875 18.515625 -58.0625 C 21.796875 -59.914062 25.765625 -60.84375 30.421875 -60.84375 C 34.953125 -60.84375 38.738281 -60.050781 41.78125 -58.46875 C 44.832031 -56.894531 47.128906 -54.796875 48.671875 -52.171875 L 36.515625 -47.78125 C 35.910156 -48.800781 34.984375 -49.59375 33.734375 -50.15625 C 32.484375 -50.71875 31.082031 -51 29.53125 -51 C 26.363281 -51 23.78125 -49.789062 21.78125 -47.375 C 19.789062 -44.96875 18.796875 -41.195312 18.796875 -36.0625 C 20.285156 -37.4375 22.054688 -38.507812 24.109375 -39.28125 C 26.171875 -40.0625 28.664062 -40.453125 31.59375 -40.453125 C 35.113281 -40.453125 38.40625 -39.628906 41.46875 -37.984375 C 44.539062 -36.347656 47.015625 -34.019531 48.890625 -31 C 50.773438 -27.988281 51.71875 -24.425781 51.71875 -20.3125 C 51.71875 -16.195312 50.734375 -12.523438 48.765625 -9.296875 C 46.796875 -6.078125 44.082031 -3.539062 40.625 -1.6875 C 37.164062 0.15625 33.195312 1.078125 28.71875 1.078125 Z M 28.640625 -9.03125 C 31.554688 -9.03125 33.847656 -10 35.515625 -11.9375 C 37.191406 -13.882812 38.03125 -16.4375 38.03125 -19.59375 C 38.03125 -22.757812 37.191406 -25.328125 35.515625 -27.296875 C 33.847656 -29.265625 31.523438 -30.25 28.546875 -30.25 C 25.679688 -30.25 23.367188 -29.289062 21.609375 -27.375 C 19.847656 -25.46875 18.96875 -22.90625 18.96875 -19.6875 C 18.96875 -16.46875 19.847656 -13.882812 21.609375 -11.9375 C 23.367188 -10 25.710938 -9.03125 28.640625 -9.03125 Z M 28.640625 -9.03125 "/></g></g></g></svg>