<svg xmlns="http://www.w3.org/2000/svg" xmlns:xlink="http://www.w3.org/1999/xlink" width="175" zoomAndPan="magnify" viewBox="0 0 131.25 143.999998" height="192" preserveAspectRatio="xMidYMid meet" version="1.2"><defs><clipPath id="0551ece328"><path d="M 17.898438 24.675781 L 111.859375 24.675781 L 111.859375 118.640625 L 17.898438 118.640625 Z M 17.898438 24.675781 "/></clipPath><clipPath id="073daee785"><path d="M 64.878906 24.675781 C 38.933594 24.675781 17.898438 45.710938 17.898438 71.660156 C 17.898438 97.605469 38.933594 118.640625 64.878906 118.640625 C 90.828125 118.640625 111.859375 97.605469 111.859375 71.660156 C 111.859375 45.710938 90.828125 24.675781 64.878906 24.675781 Z M 64.878906 24.675781 "/></clipPath></defs><g id="04a7d7f831"><g clip-rule="nonzero" clip-path="url(#0551ece328)"><g clip-rule="nonzero" clip-path="url(#073daee785)"><path style="fill:none;stroke-width:8;stroke-linecap:butt;stroke-linejoin:miter;stroke:#000000;stroke-opacity:1;stroke-miterlimit:4;" d="M 63.093277 -0.00202662 C 28.250074 -0.00202662 0.0009548 28.247092 0.0009548 63.095541 C 0.0009548 97.938745 28.250074 126.187864 63.093277 126.187864 C 97.941726 126.187864 126.185599 97.938745 126.185599 63.095541 C 126.185599 28.247092 97.941726 -0.00202662 63.093277 -0.00202662 Z M 63.093277 -0.00202662 " transform="matrix(0.744631,0,0,0.744631,17.897727,24.67729)"/></g></g><g style="fill:#000000;fill-opacity:1;"><g transform="translate(37.869539, 101.083803)"><path style="stroke:none" d="M 26.046875 1.078125 C 22.703125 1.078125 19.492188 0.597656 16.421875 -0.359375 C 13.347656 -1.316406 10.644531 -2.789062 8.3125 -4.78125 C 5.988281 -6.78125 4.203125 -9.363281 2.953125 -12.53125 L 15.296875 -17 C 16.078125 -14.082031 17.507812 -12.023438 19.59375 -10.828125 C 21.6875 -9.628906 23.953125 -9.03125 26.390625 -9.03125 C 29.203125 -9.03125 31.441406 -9.71875 33.109375 -11.09375 C 34.773438 -12.46875 35.609375 -14.378906 35.609375 -16.828125 C 35.609375 -19.265625 34.832031 -21.15625 33.28125 -22.5 C 31.738281 -23.84375 29.695312 -24.769531 27.15625 -25.28125 C 24.625 -25.789062 21.863281 -26.046875 18.875 -26.046875 L 18.875 -35.53125 C 24.007812 -35.53125 27.960938 -36.242188 30.734375 -37.671875 C 33.515625 -39.109375 34.90625 -41.140625 34.90625 -43.765625 C 34.90625 -46.085938 33.960938 -47.828125 32.078125 -48.984375 C 30.203125 -50.148438 28.039062 -50.734375 25.59375 -50.734375 C 23.382812 -50.734375 21.351562 -50.195312 19.5 -49.125 C 17.65625 -48.050781 16.4375 -46.144531 15.84375 -43.40625 L 3.578125 -47.875 C 4.773438 -50.914062 6.535156 -53.390625 8.859375 -55.296875 C 11.179688 -57.210938 13.863281 -58.613281 16.90625 -59.5 C 19.945312 -60.394531 23.109375 -60.84375 26.390625 -60.84375 C 29.140625 -60.84375 31.828125 -60.546875 34.453125 -59.953125 C 37.078125 -59.359375 39.445312 -58.421875 41.5625 -57.140625 C 43.6875 -55.859375 45.390625 -54.242188 46.671875 -52.296875 C 47.953125 -50.359375 48.59375 -48.050781 48.59375 -45.375 C 48.59375 -42.144531 47.726562 -39.320312 46 -36.90625 C 44.269531 -34.488281 42.359375 -32.6875 40.265625 -31.5 C 42.234375 -30.78125 43.914062 -29.644531 45.3125 -28.09375 C 46.71875 -26.539062 47.78125 -24.835938 48.5 -22.984375 C 49.21875 -21.140625 49.578125 -19.296875 49.578125 -17.453125 C 49.578125 -13.273438 48.472656 -9.828125 46.265625 -7.109375 C 44.054688 -4.398438 41.160156 -2.359375 37.578125 -0.984375 C 34.003906 0.390625 30.160156 1.078125 26.046875 1.078125 Z M 26.046875 1.078125 "/></g></g></g></svg>