<svg xmlns="http://www.w3.org/2000/svg" xmlns:xlink="http://www.w3.org/1999/xlink" width="168" zoomAndPan="magnify" viewBox="0 0 126 231.75" height="309" preserveAspectRatio="xMidYMid meet" version="1.2"><defs><clipPath id="f11b48ab54"><path d="M 0.0664062 0 L 125 0 L 125 230.75 L 0.0664062 230.75 Z M 0.0664062 0 "/></clipPath></defs><g id="9738701237"><g clip-rule="nonzero" clip-path="url(#f11b48ab54)"><path style=" stroke:none;fill-rule:nonzero;fill:#000000;fill-opacity:1;" d="M 8.109375 225.367188 C -6.25 212.289062 1.699219 191.523438 25.289062 179.214844 C 33.234375 175.371094 39.132812 173.574219 49.386719 173.832031 C 55.796875 174.089844 62.976562 177.679688 62.976562 177.679688 C 62.976562 131.273438 62.71875 43.585938 62.71875 0.511719 C 65.285156 0.511719 67.078125 0.257812 70.667969 0.257812 C 70.667969 2.820312 70.667969 4.871094 70.667969 6.921875 C 70.667969 9.230469 70.667969 10.511719 70.925781 12.050781 C 73.488281 28.203125 77.078125 34.613281 95.023438 54.355469 C 117.84375 79.738281 124.511719 94.863281 124.511719 115.121094 C 124.253906 134.09375 107.589844 174.601562 104 173.0625 C 109.125 158.707031 116.304688 143.320312 118.101562 130.503906 C 120.40625 114.863281 114 92.8125 103.742188 81.277344 C 95.539062 71.53125 76.050781 63.070312 70.667969 63.070312 C 70.667969 63.070312 70.410156 156.398438 70.410156 191.78125 C 70.410156 197.675781 65.027344 208.1875 61.949219 211.777344 C 47.847656 228.699219 20.414062 236.390625 8.109375 225.367188 Z M 8.109375 225.367188 "/></g></g></svg>