<svg xmlns="http://www.w3.org/2000/svg" xmlns:xlink="http://www.w3.org/1999/xlink" width="175" zoomAndPan="magnify" viewBox="0 0 131.25 143.999998" height="192" preserveAspectRatio="xMidYMid meet" version="1.2"><defs><clipPath id="0f524ef70a"><path d="M 17.898438 24.675781 L 111.859375 24.675781 L 111.859375 118.640625 L 17.898438 118.640625 Z M 17.898438 24.675781 "/></clipPath><clipPath id="786a2dceed"><path d="M 64.878906 24.675781 C 38.933594 24.675781 17.898438 45.710938 17.898438 71.660156 C 17.898438 97.605469 38.933594 118.640625 64.878906 118.640625 C 90.828125 118.640625 111.859375 97.605469 111.859375 71.660156 C 111.859375 45.710938 90.828125 24.675781 64.878906 24.675781 Z M 64.878906 24.675781 "/></clipPath></defs><g id="1bb9b822db"><g clip-rule="nonzero" clip-path="url(#0f524ef70a)"><g clip-rule="nonzero" clip-path="url(#786a2dceed)"><path style="fill:none;stroke-width:8;stroke-linecap:butt;stroke-linejoin:miter;stroke:#000000;stroke-opacity:1;stroke-miterlimit:4;" d="M 63.093277 -0.00202662 C 28.250074 -0.00202662 0.0009548 28.247092 0.0009548 63.095541 C 0.0009548 97.938745 28.250074 126.187864 63.093277 126.187864 C 97.941726 126.187864 126.185599 97.938745 126.185599 63.095541 C 126.185599 28.247092 97.941726 -0.00202662 63.093277 -0.00202662 Z M 63.093277 -0.00202662 " transform="matrix(0.744631,0,0,0.744631,17.897727,24.67729)"/></g></g><g style="fill:#000000;fill-opacity:1;"><g transform="translate(36.937365, 101.083803)"><path style="stroke:none" d="M 31.140625 0 L 31.140625 -12.625 L 2.0625 -12.625 L 2.0625 -22.546875 L 31.140625 -59.78125 L 44.75 -59.78125 L 44.75 -24.609375 L 52.96875 -24.609375 L 52.96875 -12.625 L 44.75 -12.625 L 44.75 0 Z M 16.828125 -24.609375 L 31.140625 -24.609375 L 31.140625 -41.96875 Z M 16.828125 -24.609375 "/></g></g></g></svg>