<svg xmlns="http://www.w3.org/2000/svg" xmlns:xlink="http://www.w3.org/1999/xlink" width="175" zoomAndPan="magnify" viewBox="0 0 131.25 143.999998" height="192" preserveAspectRatio="xMidYMid meet" version="1.2"><defs><clipPath id="0d82974cc8"><path d="M 17.898438 24.789062 L 111.859375 24.789062 L 111.859375 118.753906 L 17.898438 118.753906 Z M 17.898438 24.789062 "/></clipPath><clipPath id="37694f020a"><path d="M 64.878906 24.789062 C 38.933594 24.789062 17.898438 45.824219 17.898438 71.769531 C 17.898438 97.71875 38.933594 118.753906 64.878906 118.753906 C 90.828125 118.753906 111.859375 97.71875 111.859375 71.769531 C 111.859375 45.824219 90.828125 24.789062 64.878906 24.789062 Z M 64.878906 24.789062 "/></clipPath></defs><g id="22003a5ccc"><g clip-rule="nonzero" clip-path="url(#0d82974cc8)"><g clip-rule="nonzero" clip-path="url(#37694f020a)"><path style="fill:none;stroke-width:8;stroke-linecap:butt;stroke-linejoin:miter;stroke:#000000;stroke-opacity:1;stroke-miterlimit:4;" d="M 63.093277 -0.000119013 C 28.250074 -0.000119013 0.0009548 28.249 0.0009548 63.092203 C 0.0009548 97.940652 28.250074 126.189771 63.093277 126.189771 C 97.941726 126.189771 126.185599 97.940652 126.185599 63.092203 C 126.185599 28.249 97.941726 -0.000119013 63.093277 -0.000119013 Z M 63.093277 -0.000119013 " transform="matrix(0.744631,0,0,0.744631,17.897727,24.789151)"/></g></g><g style="fill:#000000;fill-opacity:1;"><g transform="translate(37.55493, 101.083803)"><path style="stroke:none" d="M 26.390625 1.078125 C 21.203125 1.078125 16.59375 -0.0664062 12.5625 -2.359375 C 8.539062 -4.660156 5.578125 -8.019531 3.671875 -12.4375 L 15.484375 -16.734375 C 16.316406 -13.804688 17.671875 -11.789062 19.546875 -10.6875 C 21.429688 -9.582031 23.476562 -9.03125 25.6875 -9.03125 C 28.84375 -9.03125 31.4375 -9.957031 33.46875 -11.8125 C 35.5 -13.664062 36.515625 -16.320312 36.515625 -19.78125 C 36.515625 -23.476562 35.453125 -26.191406 33.328125 -27.921875 C 31.210938 -29.648438 28.753906 -30.515625 25.953125 -30.515625 C 21.535156 -30.515625 18.253906 -28.578125 16.109375 -24.703125 L 4.03125 -29.171875 L 7.78125 -59.78125 L 47.78125 -59.78125 L 47.78125 -48.671875 L 19.0625 -48.671875 L 17.71875 -37.5 C 19.09375 -38.507812 20.894531 -39.28125 23.125 -39.8125 C 25.363281 -40.351562 27.53125 -40.625 29.625 -40.625 C 33.195312 -40.625 36.578125 -39.847656 39.765625 -38.296875 C 42.960938 -36.742188 45.5625 -34.429688 47.5625 -31.359375 C 49.5625 -28.285156 50.5625 -24.425781 50.5625 -19.78125 C 50.5625 -15.238281 49.441406 -11.414062 47.203125 -8.3125 C 44.960938 -5.21875 42.007812 -2.878906 38.34375 -1.296875 C 34.675781 0.285156 30.691406 1.078125 26.390625 1.078125 Z M 26.390625 1.078125 "/></g></g></g></svg>