<svg xmlns="http://www.w3.org/2000/svg" xmlns:xlink="http://www.w3.org/1999/xlink" width="175" zoomAndPan="magnify" viewBox="0 0 131.25 143.999998" height="192" preserveAspectRatio="xMidYMid meet" version="1.2"><defs><clipPath id="456e80bb30"><path d="M 17.898438 24.675781 L 111.859375 24.675781 L 111.859375 118.640625 L 17.898438 118.640625 Z M 17.898438 24.675781 "/></clipPath><clipPath id="87c9148330"><path d="M 64.878906 24.675781 C 38.933594 24.675781 17.898438 45.710938 17.898438 71.660156 C 17.898438 97.605469 38.933594 118.640625 64.878906 118.640625 C 90.828125 118.640625 111.859375 97.605469 111.859375 71.660156 C 111.859375 45.710938 90.828125 24.675781 64.878906 24.675781 Z M 64.878906 24.675781 "/></clipPath></defs><g id="d7032f28cc"><g clip-rule="nonzero" clip-path="url(#456e80bb30)"><g clip-rule="nonzero" clip-path="url(#87c9148330)"><path style="fill:none;stroke-width:8;stroke-linecap:butt;stroke-linejoin:miter;stroke:#000000;stroke-opacity:1;stroke-miterlimit:4;" d="M 63.093277 -0.00202662 C 28.250074 -0.00202662 0.0009548 28.247092 0.0009548 63.095541 C 0.0009548 97.938745 28.250074 126.187864 63.093277 126.187864 C 97.941726 126.187864 126.185599 97.938745 126.185599 63.095541 C 126.185599 28.247092 97.941726 -0.00202662 63.093277 -0.00202662 Z M 63.093277 -0.00202662 " transform="matrix(0.744631,0,0,0.744631,17.897727,24.67729)"/></g></g><g style="fill:#000000;fill-opacity:1;"><g transform="translate(44.895794, 101.083803)"><path style="stroke:none" d="M 17.8125 0 L 17.8125 -40.09375 L 4.203125 -40.09375 L 4.203125 -51.09375 C 7.367188 -51.09375 9.992188 -51.253906 12.078125 -51.578125 C 14.171875 -51.910156 15.914062 -52.6875 17.3125 -53.90625 C 18.71875 -55.132812 19.957031 -57.09375 21.03125 -59.78125 L 31.3125 -59.78125 L 31.3125 0 Z M 17.8125 0 "/></g></g></g></svg>