<svg xmlns="http://www.w3.org/2000/svg" xmlns:xlink="http://www.w3.org/1999/xlink" width="111" zoomAndPan="magnify" viewBox="0 0 83.25 230.999992" height="308" preserveAspectRatio="xMidYMid meet" version="1.2"><defs><clipPath id="084e4edff4"><path d="M 1 165 L 81.761719 165 L 81.761719 229.226562 L 1 229.226562 Z M 1 165 "/></clipPath><clipPath id="fdeab4882e"><path d="M 73 1.03125 L 81.761719 1.03125 L 81.761719 192 L 73 192 Z M 73 1.03125 "/></clipPath></defs><g id="45713f1632"><g clip-rule="nonzero" clip-path="url(#084e4edff4)"><path style=" stroke:none;fill-rule:evenodd;fill:#000000;fill-opacity:0.9;" d="M 57.546875 222.390625 C 76.429688 212.289062 86.492188 194.003906 80.304688 180.25 C 73.699219 165.578125 51.011719 161.4375 29.660156 171.003906 C 8.308594 180.574219 -3.664062 200.25 2.9375 214.921875 C 9.542969 229.59375 32.230469 233.734375 53.582031 224.164062 C 54.917969 223.566406 56.285156 223.0625 57.546875 222.390625 Z M 57.546875 222.390625 "/></g><g clip-rule="nonzero" clip-path="url(#fdeab4882e)"><path style="fill:none;stroke-width:1.5;stroke-linecap:butt;stroke-linejoin:miter;stroke:#000000;stroke-opacity:1;stroke-miterlimit:4;" d="M 299.504676 305.984569 L 299.504676 339.572267 " transform="matrix(-5.561147,0,0,-5.549953,1743.335656,1885.43835)"/></g></g></svg>