<svg xmlns="http://www.w3.org/2000/svg" xmlns:xlink="http://www.w3.org/1999/xlink" width="175" zoomAndPan="magnify" viewBox="0 0 131.25 143.999998" height="192" preserveAspectRatio="xMidYMid meet" version="1.2"><defs><clipPath id="af2f53afe5"><path d="M 17.898438 24.566406 L 111.859375 24.566406 L 111.859375 118.527344 L 17.898438 118.527344 Z M 17.898438 24.566406 "/></clipPath><clipPath id="c8dd529e93"><path d="M 64.878906 24.566406 C 38.933594 24.566406 17.898438 45.601562 17.898438 71.546875 C 17.898438 97.496094 38.933594 118.527344 64.878906 118.527344 C 90.828125 118.527344 111.859375 97.496094 111.859375 71.546875 C 111.859375 45.601562 90.828125 24.566406 64.878906 24.566406 Z M 64.878906 24.566406 "/></clipPath></defs><g id="4829c2bf70"><g clip-rule="nonzero" clip-path="url(#af2f53afe5)"><g clip-rule="nonzero" clip-path="url(#c8dd529e93)"><path style="fill:none;stroke-width:8;stroke-linecap:butt;stroke-linejoin:miter;stroke:#000000;stroke-opacity:1;stroke-miterlimit:4;" d="M 63.093277 0.00130943 C 28.250074 0.00130943 0.0009548 28.250428 0.0009548 63.093632 C 0.0009548 97.942081 28.250074 126.185954 63.093277 126.185954 C 97.941726 126.185954 126.185599 97.942081 126.185599 63.093632 C 126.185599 28.250428 97.941726 0.00130943 63.093277 0.00130943 Z M 63.093277 0.00130943 " transform="matrix(0.744631,0,0,0.744631,17.897727,24.565431)"/></g></g><g style="fill:#000000;fill-opacity:1;"><g transform="translate(38.720147, 101.083803)"><path style="stroke:none" d="M 3.046875 0 L 3.046875 -11.1875 C 10.921875 -16.726562 17.179688 -21.421875 21.828125 -25.265625 C 26.484375 -29.117188 29.835938 -32.507812 31.890625 -35.4375 C 33.953125 -38.363281 34.984375 -41.109375 34.984375 -43.671875 C 34.984375 -45.992188 34.160156 -47.75 32.515625 -48.9375 C 30.878906 -50.132812 28.957031 -50.734375 26.75 -50.734375 C 24.90625 -50.734375 23.085938 -50.210938 21.296875 -49.171875 C 19.503906 -48.128906 18.28125 -46.207031 17.625 -43.40625 L 5.28125 -47.875 C 6.894531 -52.050781 9.664062 -55.253906 13.59375 -57.484375 C 17.53125 -59.722656 22.125 -60.84375 27.375 -60.84375 C 31.4375 -60.84375 35.078125 -60.171875 38.296875 -58.828125 C 41.515625 -57.492188 44.046875 -55.523438 45.890625 -52.921875 C 47.742188 -50.328125 48.671875 -47.15625 48.671875 -43.40625 C 48.671875 -37.375 46.148438 -31.773438 41.109375 -26.609375 C 36.078125 -21.453125 29.175781 -16.3125 20.40625 -11.1875 L 48.953125 -11.1875 L 48.953125 0 Z M 3.046875 0 "/></g></g></g></svg>